<svg xmlns="http://www.w3.org/2000/svg" viewBox="0 0 102.221 61.542">
  <defs>
    <style>
      .cls-1 {
        fill: #fff;
      }
    </style>
  </defs>
  <g id="Group_227" data-name="Group 227" transform="translate(0 0.146)">
    <path id="Path_50" data-name="Path 50" class="cls-1" d="M73.411,48.9h-30.3c-1.153,0-1.811.329-1.811.988,0,.823.988,1.07,1.811,1.07H73.329c1.729,0,1.729-.659,1.729-1.07C75.14,49.476,75.14,48.9,73.411,48.9Z" transform="translate(-7.295 -8.663)"/>
    <path id="Path_51" data-name="Path 51" class="cls-1" d="M98.068,37.4h0a6.794,6.794,0,0,0-4.776,1.976A6.333,6.333,0,0,0,91.4,44.069a6.7,6.7,0,0,0,6.752,6.587,6.943,6.943,0,0,0,4.776-1.976A6.638,6.638,0,0,0,98.068,37.4Zm4.528,6.834a4.4,4.4,0,0,1-4.2,4.281h-.412a4.519,4.519,0,0,1-3.046-1.153,4.987,4.987,0,0,1-1.564-3.293,4.406,4.406,0,0,1,1.317-3.293,4.6,4.6,0,0,1,7.9,3.211v.247Z" transform="translate(-16.143 -6.632)"/>
    <path id="Path_52" data-name="Path 52" class="cls-1" d="M22.969,37.4h0A6.609,6.609,0,0,0,16.3,44.152a6.7,6.7,0,0,0,6.752,6.587,6.794,6.794,0,0,0,4.776-1.976A6.7,6.7,0,0,0,22.969,37.4Zm4.611,6.916A4.5,4.5,0,0,1,23.134,48.6h-.165A4.5,4.5,0,0,1,19.84,47.28a4.8,4.8,0,0,1-1.4-3.376,4.418,4.418,0,0,1,1.482-3.293,4.66,4.66,0,0,1,3.458-1.153c2.47.165,4.034,1.811,4.281,4.446v.247Z" transform="translate(-2.879 -6.632)"/>
    <path id="Path_53" data-name="Path 53" class="cls-1" d="M0,21.052C0,24.1.659,24.84,3.705,25.663l1.564.412V44.848c0,4.281.741,5.352,4.776,6.916l1.317.494v6.752h2.305V51.846H25.442v7.328h2.305V51.846H74.514v7.246H76.82V51.846H88.676v7.246H90.9v-3.54a3.953,3.953,0,0,1,2.8-4.364c2.305-.823,3.293-2.47,3.293-5.352V26.322l1.317-.494c3.705-1.4,3.705-1.482,3.87-5.764.165-2.882-.165-4.611-.988-5.434s-2.47-1.07-5.27-.906c-1.482.082-3.046.082-4.528.082H88.017A4.073,4.073,0,0,1,83.9,11.172c-.906-2.141-1.976-4.281-3.046-6.34C78.8.88,75.585-.6,70.315-.026c-.576.082-.823.247-.823,1.07,0,.329,0,.823,1.153.906h.823A5.523,5.523,0,0,1,74.02,2.2l.165.082c1.482.494,3.458,1.235,4.364,2.882,1.729,3.211,3.376,6.587,4.94,9.88l.082.165c.494,1.07,1.07,2.223,1.564,3.293.165.412.329.741.576,1.235l1.564,3.54H14.985l1.482-3.458c.165-.412.412-.906.576-1.317.576-1.235,1.153-2.47,1.811-3.623,1.317-2.635,2.635-5.27,3.787-7.9a7.4,7.4,0,0,1,7.493-4.858H30.3c5.6.082,11.362.082,16.879.082h7.328a6.655,6.655,0,0,0,1.317-.082c.659-.082.823-.329.823-.906.082-.659-.165-.823-.659-.988a6.421,6.421,0,0,0-1.811-.247H30.053c-4.446,0-7.328,1.811-9.057,5.6-.412.906-.823,1.811-1.235,2.635-.494.988-.988,2.058-1.482,3.046a3.98,3.98,0,0,1-4.117,2.635c-3.376-.082-6.752-.082-10.045,0H3.705c-2.47,0-3.623,1.153-3.705,3.54v3.623Zm99.792-4.94v7.246H91.723c-2.305-.412-3.787-2.141-4.117-4.94l-.329-2.305H99.792ZM41.744,25.5H89.911c3.787,0,4.776,1.07,4.776,4.858V45.342a4.681,4.681,0,0,1-1.07,3.211,4.524,4.524,0,0,1-3.293,1.153h-78.8a4.357,4.357,0,0,1-3.211-1.153,4.372,4.372,0,0,1-1.07-3.293c.082-5.434.082-10.539,0-15.4a4.756,4.756,0,0,1,1.07-3.293,4.5,4.5,0,0,1,3.376-1.153C21.984,25.5,32.44,25.5,41.744,25.5ZM2.223,22.7V16.112H15.232l-.823,2.635c-1.235,4.034-2.058,4.693-6.093,4.693H2.223Z" transform="translate(0 0)"/>
    <path id="Path_54" data-name="Path 54" class="cls-1" d="M27.779,74.105H16.005A2.3,2.3,0,0,1,13.7,71.8H30A2.185,2.185,0,0,1,27.779,74.105Z" transform="translate(-2.42 -12.708)"/>
    <path id="Path_55" data-name="Path 55" class="cls-1" d="M104.379,74.105H92.605A2.3,2.3,0,0,1,90.3,71.8h16.3A2.185,2.185,0,0,1,104.379,74.105Z" transform="translate(-15.95 -12.708)"/>
  </g>
</svg>
