<svg xmlns="http://www.w3.org/2000/svg" viewBox="0 0 147.316 48.316">
  <defs>
    <style>
      .cls-1 {
        fill: #fff;
        stroke: #fff;
        stroke-width: 0.5px;
      }
    </style>
  </defs>
  <g id="Group_228" data-name="Group 228" transform="translate(-1350.563 -7398.535)">
    <path id="Path_58" data-name="Path 58" class="cls-1" d="M24.265,11.751c-.9-.1-7.311.8-10.111-5.082A13.881,13.881,0,0,1,12.98.42a.613.613,0,0,0-.656-.472.6.6,0,0,0-.544.577V1.8C11.557,6.19,9.563,9.928,5.367,11.24a16.072,16.072,0,0,1-4.918.518.608.608,0,0,0,.007,1.187c.551.118,4.675-.551,7.882,2.111a.494.494,0,0,0,.629-.761,9.878,9.878,0,0,0-3.928-1.948c3.974-1,6.413-3.836,7.344-7.81.925,3.947,3.344,6.806,7.357,7.8a9.8,9.8,0,0,0-7.364,7.79,11.559,11.559,0,0,0-1.77-4.052.494.494,0,1,0-.807.57,9.55,9.55,0,0,1,.807,1.384,13.89,13.89,0,0,1,1.167,6.177.607.607,0,1,0,1.207-.138c-.066-1.633.059-7.154,4.525-9.777,3.01-1.77,6.361-1.252,6.806-1.351A.606.606,0,0,0,24.265,11.751Z" transform="translate(1350.838 7421.845)"/>
    <path id="Path_59" data-name="Path 59" class="cls-1" d="M24.265,11.751c-.9-.1-7.311.8-10.111-5.082A13.881,13.881,0,0,1,12.98.42a.613.613,0,0,0-.656-.472.6.6,0,0,0-.544.577V1.8C11.557,6.19,9.563,9.928,5.367,11.24a16.072,16.072,0,0,1-4.918.518.608.608,0,0,0,.007,1.187c.551.118,4.675-.551,7.882,2.111a.494.494,0,0,0,.629-.761,9.878,9.878,0,0,0-3.928-1.948c3.974-1,6.413-3.836,7.344-7.81.925,3.947,3.344,6.806,7.357,7.8a9.8,9.8,0,0,0-7.364,7.79,11.559,11.559,0,0,0-1.77-4.052.494.494,0,1,0-.807.57,9.55,9.55,0,0,1,.807,1.384,13.89,13.89,0,0,1,1.167,6.177.607.607,0,1,0,1.207-.138c-.066-1.633.059-7.154,4.525-9.777,3.01-1.77,6.361-1.252,6.806-1.351A.606.606,0,0,0,24.265,11.751Z" transform="translate(1472.838 7421.845)"/>
    <path id="Path_60" data-name="Path 60" class="cls-1" d="M24.265,11.751c-.9-.1-7.311.8-10.111-5.082A13.881,13.881,0,0,1,12.98.42a.613.613,0,0,0-.656-.472.6.6,0,0,0-.544.577V1.8C11.557,6.19,9.563,9.928,5.367,11.24a16.072,16.072,0,0,1-4.918.518.608.608,0,0,0,.007,1.187c.551.118,4.675-.551,7.882,2.111a.494.494,0,0,0,.629-.761,9.878,9.878,0,0,0-3.928-1.948c3.974-1,6.413-3.836,7.344-7.81.925,3.947,3.344,6.806,7.357,7.8a9.8,9.8,0,0,0-7.364,7.79,11.559,11.559,0,0,0-1.77-4.052.494.494,0,1,0-.807.57,9.55,9.55,0,0,1,.807,1.384,13.89,13.89,0,0,1,1.167,6.177.607.607,0,1,0,1.207-.138c-.066-1.633.059-7.154,4.525-9.777,3.01-1.77,6.361-1.252,6.806-1.351A.606.606,0,0,0,24.265,11.751Z" transform="translate(1411.838 7398.845)"/>
  </g>
</svg>
