<svg xmlns="http://www.w3.org/2000/svg" viewBox="0 0 89.139 80.892">
  <defs>
    <style>
      .cls-1 {
        fill: #fff;
        stroke: #fff;
        stroke-width: 0.5px;
      }
    </style>
  </defs>
  <g id="Group_233" data-name="Group 233" transform="translate(0.32 0.25)">
    <path id="Path_96" data-name="Path 96" class="cls-1" d="M4.5,18.1" transform="translate(10.735 42.783)"/>
    <path id="Path_97" data-name="Path 97" class="cls-1" d="M26.828,27.519h1.009a.329.329,0,0,0,.336-.336h.336L46.673,9.018a1.236,1.236,0,0,0,.336-1.009A1.236,1.236,0,0,0,46.673,7a4.266,4.266,0,0,0-2.018.336L26.828,25.164,10.682,18.437A1.229,1.229,0,0,0,9,19.109c0,.336.336,1.345,1.009,1.345l16.818,7.064Z" transform="translate(21.371 16.546)"/>
    <path id="Path_98" data-name="Path 98" class="cls-1" d="M48.871,0A39.924,39.924,0,0,0,20.28,11.773,39.159,39.159,0,0,0,8.507,40.028,45.144,45.144,0,0,0,9.853,52.474l1.009,4.036L1.78,51.128A1.479,1.479,0,0,0,.1,51.464a1.479,1.479,0,0,0,.336,1.682l13.118,7.736h0c.336,0,.336.336.673.336s.673-.336,1.009-.673h0l5.382-13.118a1.281,1.281,0,0,0-2.355-1.009l-4.373,11.1L12.544,52.81a40.763,40.763,0,0,1-1.682-12.782A37.673,37.673,0,1,1,48.535,77.7a1.345,1.345,0,0,0,0,2.691A40.124,40.124,0,0,0,88.563,40.364,39.7,39.7,0,0,0,48.871,0Z" transform="translate(0)"/>
  </g>
</svg>
