<svg id="Group_230" data-name="Group 230" xmlns="http://www.w3.org/2000/svg" viewBox="0 0 70.192 89.145">
  <defs>
    <style>
      .cls-1 {
        fill: #fff;
      }
    </style>
  </defs>
  <path id="Path_76" data-name="Path 76" class="cls-1" d="M11.123,27a1.123,1.123,0,1,0,0,2.246,1.123,1.123,0,1,0,0-2.246Z" transform="translate(4.039 10.904)"/>
  <path id="Path_77" data-name="Path 77" class="cls-1" d="M64.437,59.383V41.835a1.107,1.107,0,0,0-1.123-1.123,1.033,1.033,0,0,0-1.123,1.123V59.523a11.81,11.81,0,0,0,3.931,8.844A5.1,5.1,0,0,1,67.806,72.3a5.332,5.332,0,0,1-5.335,5.335H7.44A5.332,5.332,0,0,1,2.106,72.3,5.1,5.1,0,0,1,3.79,68.368a11.81,11.81,0,0,0,3.931-8.844V38.887A27.472,27.472,0,0,1,35.1,11.652a29.542,29.542,0,0,1,11.933,2.667l.7.281-.562.842a11.994,11.994,0,0,0-1.825,6.6A12.354,12.354,0,1,0,57.7,9.687a12.041,12.041,0,0,0-8.283,3.229l-.281.14-.421-.281a28.018,28.018,0,0,0-8.142-2.808l-1.123-.14.562-.842A6.169,6.169,0,0,0,40.992,5.9,6.026,6.026,0,0,0,35.1,0a5.932,5.932,0,0,0-5.9,5.9,4.784,4.784,0,0,0,.983,3.088l.562.842-.983.14A29.578,29.578,0,0,0,5.615,38.887v20.5a9.577,9.577,0,0,1-3.229,7.3A7.45,7.45,0,0,0,7.44,79.6H24.427l.14.562A10.826,10.826,0,0,0,35.1,89.145,10.7,10.7,0,0,0,45.625,80.16l.14-.562H62.752a7.49,7.49,0,0,0,7.44-7.44,7.329,7.329,0,0,0-2.387-5.475A9.25,9.25,0,0,1,64.437,59.383ZM57.7,11.652A10.248,10.248,0,1,1,47.45,21.9,10.306,10.306,0,0,1,57.7,11.652ZM35.1,2.106a3.625,3.625,0,0,1,3.65,3.65,3.842,3.842,0,0,1-3.65,3.79,3.625,3.625,0,0,1-3.65-3.65A3.745,3.745,0,0,1,35.1,2.106Zm8.283,78.475a8.519,8.519,0,0,1-16.565-.14l-.14-.842H43.519Z"/>
  <path id="Path_78" data-name="Path 78" class="cls-1" d="M11.33,25.575a.9.9,0,0,0,0,.842,1.1,1.1,0,0,0,.562.562,1.026,1.026,0,0,0,1.4-.562A18.737,18.737,0,0,1,30.563,15.046a1.107,1.107,0,0,0,1.123-1.123A1.033,1.033,0,0,0,30.563,12.8,21.062,21.062,0,0,0,11.33,25.575Z" transform="translate(4.533 5.169)"/>
  <path id="Path_79" data-name="Path 79" class="cls-1" d="M40.133,16.1l.842-.14v4.071A1.107,1.107,0,0,0,42.1,21.149a1.033,1.033,0,0,0,1.123-1.123V13.007a1.056,1.056,0,0,0-.7-.983A.88.88,0,0,0,41.4,12.3L39.291,14.27a1.1,1.1,0,0,0,0,1.544A.625.625,0,0,0,40.133,16.1Z" transform="translate(15.74 4.822)"/>
</svg>
