<svg xmlns="http://www.w3.org/2000/svg" viewBox="0 0 92.33 88.468">
  <defs>
    <style>
      .cls-1 {
        fill: #fff;
      }
    </style>
  </defs>
  <path id="Path_101" data-name="Path 101" class="cls-1" d="M58.788,62.448V59.557l.385-.385a8.383,8.383,0,0,1,1.349-1.156A23.5,23.5,0,0,0,66.5,44.908v-.771l.771-.193A10.63,10.63,0,0,0,74.4,39.7c2.313-3.469,2.506-8.288.578-14.648a.415.415,0,0,0-.385-.385l-1.349-.964v-.578A22.869,22.869,0,0,0,67.654,7.517C62.835,2.7,55.7,0,46.26,0s-16.576,2.7-21.2,7.71a22.605,22.605,0,0,0-5.589,15.612V23.9l-1.349.964-.385.385c-2.12,6.36-1.927,11.179.578,14.648a10.63,10.63,0,0,0,7.131,4.24l.771.193V45.1A24.114,24.114,0,0,0,32.19,58.208l1.156,1.156.385.193v2.891l-.771.193C27.371,63.8-.384,69.965,0,87.7a.829.829,0,0,0,.771.771H91.554a.829.829,0,0,0,.771-.771c.385-17.732-27.369-23.9-32.959-25.056ZM23.709,42.21a8.706,8.706,0,0,1-4.24-3.084L17.927,37.2l.578.193c-.964-2.7-.771-6.36.385-10.793l.193-.385,1.542-1.156a1,1,0,0,0,.385-.771A22.225,22.225,0,0,1,26.022,8.866c4.24-4.819,10.986-7.131,19.852-7.324,9.059,0,15.612,2.313,20.045,7.131A21.338,21.338,0,0,1,70.93,24.093a1,1,0,0,0,.385.771l1.542,1.156.193.385c1.735,5.589,1.542,9.83-.578,12.528a8.394,8.394,0,0,1-4.24,3.084l-3.469,1.156,2.313-2.7a11.654,11.654,0,0,0,2.7-8.288,6.935,6.935,0,0,0-2.506-4.433l-.385-.193v-.385l-2.506.193A38.642,38.642,0,0,1,42.4,21.78a1.229,1.229,0,0,0-1.156,0c-3.662,4.048-10.215,5.011-13.877,5.2H26.215V25.827c1.156-14.07,10.408-16.19,16-16.19a19.821,19.821,0,0,1,3.277.193h.385a19.821,19.821,0,0,1,3.277-.193c5.4,0,14.648,2.12,15.8,15.8l1.735.385C65.534,9.83,53.969,8.1,49.151,8.1a19.821,19.821,0,0,0-3.277.193h-.385A17.635,17.635,0,0,0,42.212,8.1h0C37.2,8.1,25.251,10.022,24.48,26.984v.385l-.385.193a6.935,6.935,0,0,0-2.506,4.433,11.185,11.185,0,0,0,2.7,8.1l2.313,2.7Zm9.637,14.841c-5.782-5.782-5.782-14.456-5.782-15.419v-.385a.189.189,0,0,0-.193-.193c-2.7-3.084-3.855-5.782-3.469-8.288A6.786,6.786,0,0,1,25.829,29.1l.193-.193h.385c1.735,0,10.022-.193,15.419-4.819l.578-.385.578.385a37.574,37.574,0,0,0,19.274,5.2,20.948,20.948,0,0,0,3.469-.193h.385l.385.193a6.258,6.258,0,0,1,1.927,3.469c.385,2.313-.771,5.2-3.469,8.288a.708.708,0,0,0-.193.578v1.542L53.2,49.341l-.578-.385a4.241,4.241,0,0,0-7.131,3.084,4.1,4.1,0,0,0,1.349,2.891,4.25,4.25,0,0,0,2.891,1.156,4.1,4.1,0,0,0,2.891-1.349,3.923,3.923,0,0,0,1.156-2.891v-.964l10.6-5.589-.385,1.927a20.833,20.833,0,0,1-5.011,9.83A17.123,17.123,0,0,1,46.452,61.87H44.91A16.512,16.512,0,0,1,33.346,57.051Zm19.081-5.2a2.506,2.506,0,1,1-2.506-2.506A2.551,2.551,0,0,1,52.427,51.847ZM45.3,86.733H1.544l.193-1.156C3.086,71.892,23.709,66.11,32.575,64.183l1.156-.193v4.433c0,3.469,4.626,6.168,10.793,6.746h.964V86.733ZM35.273,68.423v-7.71l1.349.578a21.281,21.281,0,0,0,9.059,1.927h.964A21.281,21.281,0,0,0,55.7,61.291l1.349-.578v7.71c0,2.506-4.433,5.011-10.986,5.011C39.706,73.627,35.273,70.928,35.273,68.423ZM90.59,85.769l.193,1.156H47.031V75.361h.964c6.168-.385,10.793-3.277,10.793-6.746v-4.24l1.156.193C66.69,65.724,89.048,71.507,90.59,85.769Z" transform="translate(0.002)"/>
</svg>
