<svg id="Group_231" data-name="Group 231" xmlns="http://www.w3.org/2000/svg" viewBox="0 0 87.097 87.097">
  <defs>
    <style>
      .cls-1 {
        fill: #fff;
      }
    </style>
  </defs>
  <path id="Path_80" data-name="Path 80" class="cls-1" d="M79.214,7.636H70.1V4.384a4.384,4.384,0,1,0-8.769,0V7.636H30.592V4.384a4.384,4.384,0,0,0-8.769,0v3.6l-1.084-.3c-.1,0-.148-.049-.246-.049H13.6a7.821,7.821,0,0,0-7.833,7.833V44.977a.887.887,0,1,0,1.773,0V23.794h63.3a.887.887,0,0,0,0-1.773H7.636V15.468A6.055,6.055,0,0,1,13.7,9.409h6.9a.444.444,0,0,0,.246-.049l1.084-.3v3.35a4.384,4.384,0,1,0,8.769,0V9.409H61.48v3.005a4.384,4.384,0,1,0,8.769,0V9.409h9.114a6.055,6.055,0,0,1,6.059,6.059V81.333a3.941,3.941,0,0,1-7.882,0V76.85a.883.883,0,0,0-.887-.887H56.5a.887.887,0,1,0,0,1.773H75.766v3.6a5.825,5.825,0,0,0,.69,2.709l.69,1.232H5.764a3.953,3.953,0,0,1-3.941-3.941v-3.6H41.479a.887.887,0,1,0,0-1.773H21.823l1.724-1.478A13.362,13.362,0,1,0,1.478,64.337a13.285,13.285,0,0,0,4.68,10.148l1.724,1.478h-7A.883.883,0,0,0,0,76.85v4.483A5.771,5.771,0,0,0,5.764,87.1H81.333A5.771,5.771,0,0,0,87.1,81.333V15.468A7.9,7.9,0,0,0,79.214,7.636Zm-50.4,4.778a2.562,2.562,0,0,1-5.123,0V4.384a2.562,2.562,0,0,1,5.123,0Zm39.509,0a2.562,2.562,0,1,1-5.123,0V4.384a2.562,2.562,0,1,1,5.123,0ZM3.251,64.337A11.577,11.577,0,1,1,14.828,75.914,11.563,11.563,0,0,1,3.251,64.337Z"/>
  <path id="Path_81" data-name="Path 81" class="cls-1" d="M160.327,46.227a.936.936,0,0,0,.246-.64,1.038,1.038,0,0,0-.246-.64.936.936,0,0,0-.64-.246,1.038,1.038,0,0,0-.64.246.937.937,0,0,0-.246.64,1.038,1.038,0,0,0,.246.64A.922.922,0,0,0,160.327,46.227Z" transform="translate(-80.571 -22.68)"/>
  <path id="Path_82" data-name="Path 82" class="cls-1" d="M99.1,155.074a1.038,1.038,0,0,0,.246.64.922.922,0,0,0,1.281,0,.936.936,0,0,0,.246-.64,1.038,1.038,0,0,0-.246-.64.922.922,0,0,0-1.281,0A.937.937,0,0,0,99.1,155.074Z" transform="translate(-50.281 -78.224)"/>
  <path id="Path_83" data-name="Path 83" class="cls-1" d="M71.964,118.427a5.764,5.764,0,1,0-5.764-5.764A5.771,5.771,0,0,0,71.964,118.427Zm0-9.7a3.941,3.941,0,1,1-3.941,3.941A3.953,3.953,0,0,1,71.964,108.723Z" transform="translate(-33.588 -54.238)"/>
  <path id="Path_84" data-name="Path 84" class="cls-1" d="M104.764,118.427A5.764,5.764,0,1,0,99,112.664,5.771,5.771,0,0,0,104.764,118.427Zm0-9.7a3.941,3.941,0,1,1-3.941,3.941A3.953,3.953,0,0,1,104.764,108.723Z" transform="translate(-50.23 -54.238)"/>
  <path id="Path_85" data-name="Path 85" class="cls-1" d="M137.664,118.427a5.764,5.764,0,1,0-5.764-5.764A5.771,5.771,0,0,0,137.664,118.427Zm0-9.7a3.941,3.941,0,1,1-3.941,3.941A3.89,3.89,0,0,1,137.664,108.723Z" transform="translate(-66.922 -54.238)"/>
  <path id="Path_86" data-name="Path 86" class="cls-1" d="M44.827,76.064a5.764,5.764,0,1,0-5.764,5.764A5.771,5.771,0,0,0,44.827,76.064Zm-5.714,3.99a3.941,3.941,0,1,1,3.941-3.941A3.953,3.953,0,0,1,39.113,80.054Z" transform="translate(-16.896 -35.668)"/>
  <path id="Path_87" data-name="Path 87" class="cls-1" d="M104.764,81.827A5.764,5.764,0,1,0,99,76.064,5.771,5.771,0,0,0,104.764,81.827Zm0-9.7a3.941,3.941,0,1,1-3.941,3.941A3.953,3.953,0,0,1,104.764,72.123Z" transform="translate(-50.23 -35.668)"/>
  <path id="Path_88" data-name="Path 88" class="cls-1" d="M137.664,70.4a5.764,5.764,0,1,0,5.764,5.764A5.771,5.771,0,0,0,137.664,70.4Zm0,9.7a3.941,3.941,0,1,1,3.941-3.941A3.953,3.953,0,0,1,137.664,80.1Z" transform="translate(-66.922 -35.719)"/>
  <path id="Path_89" data-name="Path 89" class="cls-1" d="M71.964,81.827A5.764,5.764,0,1,0,66.2,76.064,5.771,5.771,0,0,0,71.964,81.827Zm0-9.7a3.941,3.941,0,1,1-3.941,3.941A3.953,3.953,0,0,1,71.964,72.123Z" transform="translate(-33.588 -35.668)"/>
  <path id="Path_90" data-name="Path 90" class="cls-1" d="M28.3,122.94,22.04,129.2l-2.512-2.512a.937.937,0,0,0-.64-.246,1.038,1.038,0,0,0-.64.246.937.937,0,0,0-.246.64,1.038,1.038,0,0,0,.246.64l3.153,3.153a.922.922,0,0,0,1.281,0l6.848-6.848a.937.937,0,0,0,.246-.64,1.038,1.038,0,0,0-.246-.64A.823.823,0,0,0,28.3,122.94Z" transform="translate(-9.133 -62.248)"/>
</svg>
