<svg id="Group_226" data-name="Group 226" xmlns="http://www.w3.org/2000/svg" viewBox="0 0 111.359 95.439">
  <defs>
    <style>
      .cls-1 {
        fill: #fff;
      }
    </style>
  </defs>
  <path id="Path_46" data-name="Path 46" class="cls-1" d="M80.489,93.9H51.342c-1.109,0-1.742.317-1.742.95,0,.792.95,1.03,1.742,1.03H80.41c1.663,0,1.663-.634,1.663-1.03C82.152,94.454,82.152,93.9,80.489,93.9Z" transform="translate(-10.315 -19.529)"/>
  <path id="Path_47" data-name="Path 47" class="cls-1" d="M106.114,82.3h0a6.535,6.535,0,0,0-4.594,1.9A6.092,6.092,0,0,0,99.7,88.715a6.441,6.441,0,0,0,6.495,6.336,6.679,6.679,0,0,0,4.594-1.9A6.385,6.385,0,0,0,106.114,82.3Zm4.435,6.653a4.235,4.235,0,0,1-4.039,4.119h-.4a4.347,4.347,0,0,1-2.93-1.109,4.8,4.8,0,0,1-1.5-3.168,4.238,4.238,0,0,1,1.267-3.168,4.425,4.425,0,0,1,7.6,3.089v.238Z" transform="translate(-20.733 -17.116)"/>
  <path id="Path_48" data-name="Path 48" class="cls-1" d="M31.115,82.3h0A6.358,6.358,0,0,0,24.7,88.795a6.441,6.441,0,0,0,6.495,6.336,6.535,6.535,0,0,0,4.594-1.9,6.414,6.414,0,0,0,1.822-4.515A6.506,6.506,0,0,0,31.115,82.3Zm4.356,6.653a4.33,4.33,0,0,1-4.277,4.119h-.158a4.328,4.328,0,0,1-3.01-1.267,4.621,4.621,0,0,1-1.346-3.247,4.25,4.25,0,0,1,1.426-3.168,4.483,4.483,0,0,1,3.327-1.109c2.376.158,3.881,1.742,4.119,4.277v.238Z" transform="translate(-5.137 -17.116)"/>
  <path id="Path_49" data-name="Path 49" class="cls-1" d="M111.359,78.094c-.158-1.03-.713-1.03-.95-1.03-.4,0-.95.158-.95,1.03q-.119,3.921,0,7.841V93.38h-15.6v-4.2a3.8,3.8,0,0,1,2.693-4.2c2.218-.792,3.168-2.376,3.168-5.148V61.065l1.267-.475c3.564-1.346,3.564-1.426,3.723-5.544.158-2.772-.158-4.435-.95-5.227s-2.376-1.03-5.069-.871c-1.426.079-2.93.079-4.356.079H91.083a3.918,3.918,0,0,1-3.96-2.534c-.871-2.059-1.9-4.119-2.93-6.1-1.98-3.8-5.069-5.227-10.138-4.673-.554.079-.792.238-.792,1.03,0,.317,0,.792,1.109.871h.792a5.313,5.313,0,0,1,2.455.238l.158.079c1.426.475,3.327,1.188,4.2,2.772,1.663,3.089,3.247,6.336,4.752,9.5l.079.158c.475,1.03,1.03,2.138,1.5,3.168.158.4.317.713.554,1.188l1.5,3.406H20.989l1.426-3.327c.158-.4.4-.871.554-1.267.554-1.188,1.109-2.376,1.742-3.485,1.267-2.534,2.534-5.069,3.643-7.6a7.117,7.117,0,0,1,7.207-4.673h.158c5.386.079,10.93.079,16.237.079h7.049a6.4,6.4,0,0,0,1.267-.079c.634-.079.792-.317.792-.871.079-.634-.158-.792-.634-.95a3.269,3.269,0,0,0-1.742-.317H35.562c-4.277,0-7.049,1.742-8.712,5.386-.4.871-.792,1.663-1.188,2.534-.475.95-.95,1.98-1.426,2.931a3.828,3.828,0,0,1-3.96,2.534c-3.247-.079-6.495-.079-9.663,0h-.4c-2.376,0-3.485,1.109-3.564,3.406v3.406c0,2.93.634,3.643,3.564,4.435l1.5.4V78.727c0,4.119.713,5.148,4.594,6.653l1.267.475v7.287H2.059V19.484h107.32V63.758c.079.871.475,1.03.95,1.03s.792-.079.95-.95a4.531,4.531,0,0,0,.079-1.109V4.2c0-3.168-1.03-4.2-4.119-4.2H4.039C1.03,0,0,1.03,0,4.039V93.3H0v2.138H111.359V78.094ZM2.138,2.138H109.3V8.554H2.138Zm-.079,8.633H109.3v6.415H2.059ZM102.567,51.165v6.97H94.806c-2.218-.4-3.643-2.059-3.96-4.752l-.317-2.218Zm-91.162,6.97H8.712V51.086H21.226l-.792,2.534c-1.188,3.881-1.98,4.515-5.861,4.515H11.405ZM30.968,93.3H19.642V85.46H30.968Zm47.126,0H33.107V85.539H78.094Zm13.544,0H80.232V85.539H91.637Zm1.9-9.9h-75.8a4.191,4.191,0,0,1-3.089-1.109,4.206,4.206,0,0,1-1.03-3.168c.079-5.227.079-10.138,0-14.811a4.575,4.575,0,0,1,1.03-3.168A4.332,4.332,0,0,1,17.9,60.036H93.063c3.643,0,4.594,1.03,4.594,4.673V79.123a4.5,4.5,0,0,1-1.03,3.089A3.929,3.929,0,0,1,93.538,83.4Z"/>
</svg>
