<svg xmlns="http://www.w3.org/2000/svg" viewBox="0 0 74.079 89.895">
  <defs>
    <style>
      .cls-1 {
        fill: #fff;
      }
    </style>
  </defs>
  <g id="Group_229" data-name="Group 229" transform="translate(0 0.1)">
    <path id="Path_61" data-name="Path 61" class="cls-1" d="M49.091,16.8H23.268a.968.968,0,1,0,0,1.937H48.93a1.041,1.041,0,0,0,.968-.968A.9.9,0,0,0,49.091,16.8Z" transform="translate(13.69 10.375)"/>
    <path id="Path_62" data-name="Path 62" class="cls-1" d="M35.537,23.068a.838.838,0,0,0-.323-.646,1.224,1.224,0,0,0-.646-.323,1.141,1.141,0,0,0-.968.968.838.838,0,0,0,.323.646,1.2,1.2,0,0,0,1.453,0C35.375,23.553,35.537,23.391,35.537,23.068Z" transform="translate(20.627 13.629)"/>
    <path id="Path_63" data-name="Path 63" class="cls-1" d="M23.268,4.8a.838.838,0,0,0-.646.323,1.224,1.224,0,0,0-.323.646.838.838,0,0,0,.323.646,1.2,1.2,0,0,0,1.453,0,1.224,1.224,0,0,0,.323-.646.838.838,0,0,0-.323-.646C23.914,4.8,23.591,4.8,23.268,4.8Z" transform="translate(13.69 3.008)"/>
    <path id="Path_64" data-name="Path 64" class="cls-1" d="M23.268,24.037H33.92a.968.968,0,1,0,0-1.937H23.268a.968.968,0,1,0,0,1.937Z" transform="translate(13.69 13.629)"/>
    <path id="Path_65" data-name="Path 65" class="cls-1" d="M49.091,28.7H23.268a.968.968,0,1,0,0,1.937H48.93a1.041,1.041,0,0,0,.968-.968A.9.9,0,0,0,49.091,28.7Z" transform="translate(13.69 17.681)"/>
    <path id="Path_66" data-name="Path 66" class="cls-1" d="M35.537,35.068a.838.838,0,0,0-.323-.646,1.224,1.224,0,0,0-.646-.323,1.141,1.141,0,0,0-.968.968.838.838,0,0,0,.323.646,1.2,1.2,0,0,0,1.453,0C35.375,35.553,35.537,35.23,35.537,35.068Z" transform="translate(20.627 20.996)"/>
    <path id="Path_67" data-name="Path 67" class="cls-1" d="M23.207,36.1H33.859a1.041,1.041,0,0,0,.968-.968c0-.484-.323-1.13-.807-1.13H23.368a1.041,1.041,0,0,0-.968.968C22.4,35.453,22.723,36.1,23.207,36.1Z" transform="translate(13.752 20.934)"/>
    <path id="Path_68" data-name="Path 68" class="cls-1" d="M49.091,40.7H23.268a.968.968,0,1,0,0,1.937H48.93a1.041,1.041,0,0,0,.968-.968A.9.9,0,0,0,49.091,40.7Z" transform="translate(13.69 25.048)"/>
    <path id="Path_69" data-name="Path 69" class="cls-1" d="M34.568,46a.838.838,0,0,0-.646.323.807.807,0,0,0,0,1.291,1.2,1.2,0,0,0,1.453,0,.807.807,0,0,0,0-1.291C35.053,46.161,34.891,46,34.568,46Z" transform="translate(20.627 28.301)"/>
    <path id="Path_70" data-name="Path 70" class="cls-1" d="M34.02,46H23.368a.968.968,0,1,0,0,1.937H34.02a.968.968,0,1,0,0-1.937Z" transform="translate(13.752 28.301)"/>
    <path id="Path_71" data-name="Path 71" class="cls-1" d="M66.17,7H52.291l-.161-.161a10.294,10.294,0,0,0-7.1-2.905h-2.1l-.161-.484A6.485,6.485,0,0,0,37.12-.1a6.194,6.194,0,0,0-5.649,3.551l-.161.484H29.05a9.9,9.9,0,0,0-6.94,2.744l-.161.161H7.908A8.168,8.168,0,0,0,0,14.909V81.887a7.921,7.921,0,0,0,7.908,7.908H66.17a7.921,7.921,0,0,0,7.908-7.908V14.909A7.921,7.921,0,0,0,66.17,7ZM20.819,13.457A8.267,8.267,0,0,1,29.05,5.871h2.744a1.09,1.09,0,0,0,.968-.646,4.341,4.341,0,0,1,8.392,0,.885.885,0,0,0,.968.646h2.744A8.257,8.257,0,0,1,53.1,13.457v.807H20.819Zm51.322,68.43a6.064,6.064,0,0,1-5.971,5.971H7.908a6.064,6.064,0,0,1-5.971-5.971V14.909A6.064,6.064,0,0,1,7.908,8.938H20.335l-.484,1.13a11.237,11.237,0,0,0-.807,4.035v1.13a1.041,1.041,0,0,0,.968.968H54.227a1.041,1.041,0,0,0,.968-.968V14.1a11.238,11.238,0,0,0-.807-4.035L53.9,8.938H66.17a6.064,6.064,0,0,1,5.971,5.971Z" transform="translate(0 0)"/>
    <path id="Path_72" data-name="Path 72" class="cls-1" d="M19.519,16.492l-8.231,8.231L8.383,21.818a1.224,1.224,0,0,0-.646-.323,1.224,1.224,0,0,0-.646.323,1.2,1.2,0,0,0,0,1.453l3.551,3.551a1.2,1.2,0,0,0,1.453,0l8.877-8.877a1.2,1.2,0,0,0,0-1.453A1.2,1.2,0,0,0,19.519,16.492Z" transform="translate(4.205 10.037)"/>
    <path id="Path_73" data-name="Path 73" class="cls-1" d="M16.822,40.7H8.268a1.041,1.041,0,0,0-.968.968v8.554a1.041,1.041,0,0,0,.968.968h8.554a1.041,1.041,0,0,0,.968-.968V41.668A1.041,1.041,0,0,0,16.822,40.7Zm-.968,8.554H9.237V42.637h6.617Z" transform="translate(4.482 25.048)"/>
    <path id="Path_74" data-name="Path 74" class="cls-1" d="M16.822,28.7H8.268a1.041,1.041,0,0,0-.968.968v8.554a1.041,1.041,0,0,0,.968.968h8.554a1.041,1.041,0,0,0,.968-.968V29.668A1.041,1.041,0,0,0,16.822,28.7Zm-.968,8.554H9.237V30.8h6.617Z" transform="translate(4.482 17.681)"/>
  </g>
</svg>
