<svg id="Group_232" data-name="Group 232" xmlns="http://www.w3.org/2000/svg" viewBox="0 0 70.148 91.414">
  <defs>
    <style>
      .cls-1 {
        fill: #fff;
      }
    </style>
  </defs>
  <path id="Path_91" data-name="Path 91" class="cls-1" d="M34.982,0A34.967,34.967,0,0,0,0,34.982,35.842,35.842,0,0,0,7.733,57.076L34.246,91.137a1.12,1.12,0,0,0,1.473,0L47.134,76.592a.921.921,0,1,0-1.473-1.1L34.982,88.928,9.206,55.971A33.183,33.183,0,1,1,68.123,34.982a33.811,33.811,0,0,1-7.549,21.173l-.184.184-7,8.838c0,.184,0,.552,0,.736s.184.368.368.552.368.184.736.184c.184,0,.368-.184.552-.368l7.181-9.206a34.567,34.567,0,0,0,7.917-22.094A35.243,35.243,0,0,0,34.982,0Z"/>
  <path id="Path_92" data-name="Path 92" class="cls-1" d="M27.736,37.9a1.855,1.855,0,0,0-.552.184.676.676,0,0,0-.184.552,1.855,1.855,0,0,0,.184.552.89.89,0,0,0,1.289,0,.676.676,0,0,0,.184-.552,1.855,1.855,0,0,0-.184-.552C28.289,37.9,28.1,37.9,27.736,37.9Z" transform="translate(22.711 31.88)"/>
  <path id="Path_93" data-name="Path 93" class="cls-1" d="M20.377,7.852A23.328,23.328,0,0,0,6.2,29.394,23.567,23.567,0,1,0,37.868,7.3h-.736l-.552.552v.736c0,.184.368.368.552.552A21.724,21.724,0,0,1,29.767,51.3,21.811,21.811,0,0,1,21.113,9.509c.368-.184.736-.736.552-1.1A.951.951,0,0,0,20.377,7.852Z" transform="translate(5.215 6.14)"/>
  <path id="Path_94" data-name="Path 94" class="cls-1" d="M19.421,8.341a.87.87,0,0,0,.921-.921.921.921,0,1,0-1.841,0,.986.986,0,0,0,.921.921Z" transform="translate(15.561 5.468)"/>
  <path id="Path_95" data-name="Path 95" class="cls-1" d="M15.787,15.53l-1.473,6.076-.552.184A3.924,3.924,0,0,0,11,25.472v6.444a.87.87,0,0,0,.921.921h3.866v2.209a.921.921,0,0,0,1.841,0V32.837h16.2v2.209a.921.921,0,0,0,1.841,0V32.837h3.866a.87.87,0,0,0,.921-.921V25.472A3.924,3.924,0,0,0,37.7,21.79l-.552-.184L35.672,15.53a4,4,0,0,0-4.051-3.13H19.653A3.941,3.941,0,0,0,15.787,15.53Zm20.805,7.917h0a2.09,2.09,0,0,1,2.025,2.209V31.18H12.841V25.656a2.239,2.239,0,0,1,2.209-2.209Zm-2.578-7.365h0l1.473,5.708H16.155l1.473-5.708a2.187,2.187,0,0,1,2.209-1.841H31.805A2.187,2.187,0,0,1,34.015,16.082Z" transform="translate(9.253 10.43)"/>
</svg>
