<svg id="Group_60" data-name="Group 60" xmlns="http://www.w3.org/2000/svg" viewBox="0 0 35.036 50.607">
  <defs>
    <style>
      .cls-1 {
        fill: #FFFFFF;
      }
    </style>
  </defs>
  <path id="Path_12" data-name="Path 12" class="cls-1" d="M30.334,15.1V.738H25.16l-.748,2.95-.369.369-.369-.369C22.2,1.475,18.5,0,15.172,0A14.969,14.969,0,0,0,0,15.1,13.324,13.324,0,0,0,6.659,26.892,12.14,12.14,0,0,0,3.7,46.448l4.61-11.074h0c.953-2.438,3.493-4.047,6.854-4.047,4.292,0,7.263,2.633,7.263,6.239a5.819,5.819,0,0,1-.5,2.407h0L17.5,50.607c6.854-.871,12.826-5.542,12.826-12.969a11.789,11.789,0,0,0-6.659-10.757A13.271,13.271,0,0,0,30.334,15.1M22.927,17.17v2.387l-2.069,1.188-1.2,2.069h-2.4L15.192,24l-2.08-1.188h-2.4l-1.2-2.069L7.448,19.557V17.17L6.249,15.1l1.2-2.069V10.654L9.517,9.466l1.2-2.069h2.4l2.069-1.188L17.252,7.4h2.4l1.2,2.069,2.069,1.188v2.387l1.2,2.069Z"/>
  <path id="Path_13" data-name="Path 13" class="cls-1" d="M310.69,7.2A1.68,1.68,0,1,1,309,8.88a1.7,1.7,0,0,1,1.69-1.68m0,3.053a1.373,1.373,0,1,0-1.373-1.373,1.347,1.347,0,0,0,1.373,1.373m-.635-2.387h.8a.626.626,0,0,1,.676.615.647.647,0,0,1-.666.6l.625.686-.061.092H311.1l-.676-.768h-.01v.768h-.359Zm.779.891c.184,0,.328-.092.328-.277s-.143-.277-.328-.277h-.43v.563h.43Z" transform="translate(-277.345 -6.462)"/>
</svg>
